<?xml version="1.0" encoding="UTF-8"?>
<svg id="Layer_2" data-name="Layer 2" xmlns="http://www.w3.org/2000/svg" viewBox="0 0 505.01 243.17">
  <defs>
    <style>
      .cls-1 {
        stroke-width: 5.77px;
      }

      .cls-1, .cls-2, .cls-3, .cls-4, .cls-5, .cls-6, .cls-7, .cls-8, .cls-9, .cls-10, .cls-11, .cls-12, .cls-13, .cls-14, .cls-15, .cls-16 {
        stroke: #171717;
      }

      .cls-1, .cls-2, .cls-3, .cls-4, .cls-5, .cls-6, .cls-7, .cls-8, .cls-9, .cls-10, .cls-11, .cls-12, .cls-13, .cls-15, .cls-16 {
        fill: none;
      }

      .cls-17 {
        fill: #181818;
      }

      .cls-17, .cls-18, .cls-19, .cls-20, .cls-21, .cls-22, .cls-23, .cls-24, .cls-25, .cls-26, .cls-27, .cls-28, .cls-29, .cls-30, .cls-31, .cls-32, .cls-33, .cls-34 {
        stroke-width: 0px;
      }

      .cls-18 {
        fill: #000;
      }

      .cls-19 {
        fill: #201d1e;
      }

      .cls-20 {
        fill: #1a1919;
      }

      .cls-2 {
        stroke-width: 3.31px;
      }

      .cls-21 {
        fill: #ffec00;
      }

      .cls-3 {
        stroke-width: 5.15px;
      }

      .cls-22 {
        fill: #1d1b1c;
      }

      .cls-4 {
        stroke-width: 3px;
      }

      .cls-5 {
        stroke-width: 5.46px;
      }

      .cls-6 {
        stroke-width: 3.62px;
      }

      .cls-23 {
        fill: #1e1c1d;
      }

      .cls-7 {
        stroke-width: 6.38px;
      }

      .cls-8 {
        stroke-width: 3.92px;
      }

      .cls-24 {
        fill: #1c1a1a;
      }

      .cls-25, .cls-14 {
        fill: #171717;
      }

      .cls-26 {
        fill: #ed1c24;
      }

      .cls-27 {
        fill: #1d1b1b;
      }

      .cls-9 {
        stroke-width: 4.85px;
      }

      .cls-10 {
        stroke-miterlimit: 10;
        stroke-width: 7.01px;
      }

      .cls-11 {
        stroke-width: 4.23px;
      }

      .cls-28 {
        fill: #1f1d1d;
      }

      .cls-29 {
        fill: #231f20;
      }

      .cls-12 {
        stroke-width: 6.69px;
      }

      .cls-30 {
        fill: #211e1f;
      }

      .cls-31 {
        fill: #221e1f;
      }

      .cls-13 {
        stroke-width: 4.54px;
      }

      .cls-32 {
        fill: #191818;
      }

      .cls-33 {
        fill: #1b191a;
      }

      .cls-34 {
        fill: #7f121f;
      }

      .cls-35 {
        opacity: .25;
      }

      .cls-14, .cls-16 {
        stroke-width: 7px;
      }

      .cls-15 {
        stroke-width: 6.08px;
      }
    </style>
  </defs>
  <g id="logo">
    <g>
      <g>
        <g>
          <path class="cls-26" d="M18.38,238.99c-5.63,0-10.21-4.7-10.21-10.48V91.66c0-5.78,4.58-10.48,10.21-10.48h214.45c5.63,0,10.21,4.7,10.21,10.48v60.28l-58.79-26.72-30.78,31.34-1.55,82.42H18.38Z"/>
          <path class="cls-25" d="M232.84,84.63c3.73,0,6.76,3.14,6.76,7.02v54.92l-56.11-25.5-33.44,34.05-1.52,80.41H18.38c-3.73,0-6.76-3.14-6.76-7.02V91.66c0-3.88,3.02-7.02,6.76-7.02h214.45M232.84,77.72H18.38c-7.54,0-13.67,6.25-13.67,13.93v136.86c0,7.68,6.13,13.93,13.67,13.93h136.93l.13-6.78,1.46-77.66,28.13-28.64,51.71,23.5,9.77,4.44v-65.65c0-7.68-6.13-13.93-13.67-13.93h0Z"/>
        </g>
        <g>
          <path class="cls-26" d="M18.37,84.63h214.47c3.73,0,6.76,3.13,6.76,7v13.89H11.61v-13.89c0-3.87,3.02-7,6.76-7Z"/>
          <g class="cls-35">
            <path class="cls-18" d="M40.23,235.54h109.54l1.5-80.41,32.99-34.05,55.35,25.5v-54.92c0-3.88-2.98-7.02-6.66-7.02H40.23v150.9Z"/>
          </g>
          <g>
            <path class="cls-34" d="M179.64,105.67l-34.24-24.38h48.8l34.24,24.38h-48.8ZM86.14,105.67l-34.24-24.38h47.75l34.24,24.38h-47.75Z"/>
            <path class="cls-25" d="M193.13,84.63l24.85,17.7h-37.27l-24.85-17.7h37.27M98.58,84.63l24.85,17.7h-36.23l-24.85-17.7h36.23M195.27,77.95h-60.33l17.04,12.13,24.85,17.7,1.74,1.24h60.33l-17.04-12.13-24.85-17.7-1.74-1.24h0ZM100.72,77.95h-59.28l17.04,12.13,24.85,17.7,1.74,1.24h59.28l-17.04-12.13-24.85-17.7-1.74-1.24h0Z"/>
          </g>
        </g>
        <g>
          <path class="cls-25" d="M228.18,7c3.17,0,5.99,2.32,6.62,5.66l2.68,14.18c.73,3.86-1.75,7.58-5.49,8.24L17.51,73.3c-.39.07-.77.1-1.15.1-3.19,0-6.02-2.35-6.63-5.7l-2.6-14.27c-.7-3.84,1.77-7.54,5.5-8.2L227.03,7.1c.39-.07.77-.1,1.15-.1M228.18,0c-.79,0-1.59.07-2.38.21L11.39,38.34c-3.6.64-6.75,2.67-8.86,5.71C.37,47.16-.45,50.94.24,54.68l2.6,14.27c1.21,6.63,6.89,11.45,13.52,11.45.79,0,1.59-.07,2.38-.21l214.49-38.22c3.62-.64,6.77-2.68,8.89-5.74,2.16-3.13,2.96-6.93,2.25-10.69l-2.68-14.18c-1.24-6.58-6.92-11.36-13.5-11.36h0Z"/>
          <g>
            <path class="cls-34" d="M16.36,76.93c-4.93,0-9.17-3.61-10.07-8.57l-2.6-14.29c-.52-2.83.1-5.68,1.73-8.02,1.58-2.27,3.93-3.78,6.61-4.25l31.86-5.62-20.75,39.73-5.05.88c-.57.1-1.15.15-1.73.15ZM71.92,31.16l44.72-8.01-20.94,39.75-44.53,8.01,20.75-39.75ZM144.81,18.56l44.8-7.75-20.6,39.1-45.38,7.99,21.17-39.34ZM217.96,5.16l8.46-1.5c.58-.1,1.18-.16,1.76-.16,4.9,0,9.13,3.58,10.06,8.51l2.68,14.19c.54,2.83-.06,5.69-1.69,8.05-1.57,2.28-3.92,3.81-6.61,4.29l-35.61,6.38,20.94-39.75Z"/>
            <path class="cls-25" d="M228.18,7c3.17,0,5.99,2.32,6.62,5.66l2.68,14.19c.73,3.85-1.74,7.57-5.48,8.24l-28.55,5.12,16.8-31.9,6.77-1.2c.39-.07.77-.1,1.15-.1M183.2,15.47l-16.48,31.29-36.57,6.44,16.94-31.48,36.12-6.25M110.2,27.86l-16.8,31.9-35.83,6.44,16.66-31.9,35.98-6.44M37.48,40.85h0s0,0,0,0h0M37.48,40.85l-16.65,31.9-3.34.58c-.38.07-.76.1-1.13.1-3.19,0-6.02-2.35-6.63-5.7l-2.6-14.29c-.7-3.85,1.78-7.54,5.5-8.2l24.86-4.39M228.18,0h0c-.79,0-1.59.07-2.38.21l-6.77,1.21-3.37.6-1.6,3.03-16.8,31.9-6.68,12.68,14.11-2.53,28.55-5.12c3.62-.65,6.77-2.69,8.88-5.75,2.16-3.13,2.96-6.93,2.25-10.69l-2.68-14.19C240.44,4.78,234.76,0,228.18,0h0ZM196.02,6.15l-14.02,2.43-36.12,6.25-3.36.58-1.61,3-16.94,31.48-6.84,12.72,14.22-2.51,36.57-6.44,3.38-.6,1.6-3.04,16.48-31.29,6.63-12.59h0ZM123.08,18.44l-14.11,2.53-35.98,6.44-3.38.61-1.59,3.04-16.66,31.9-6.61,12.66,14.05-2.53,35.83-6.44,3.36-.6,1.59-3.02,16.8-31.9,6.68-12.68h0ZM50.27,31.49l-14,2.47-24.86,4.39c-3.61.64-6.76,2.66-8.87,5.7C.37,47.16-.45,50.94.24,54.69l2.6,14.29c1.21,6.63,6.89,11.45,13.52,11.45.78,0,1.56-.07,2.33-.2l3.34-.58,3.4-.59,1.6-3.06,16.65-31.9,6.58-12.6h0Z"/>
          </g>
        </g>
        <g>
          <path class="cls-34" d="M55.45,213.04c-6.74,0-12.23-5.49-12.23-12.23v-51.88c0-6.74,5.49-12.23,12.23-12.23,2.08,0,4.16.55,6,1.6l45.83,25.94c3.88,2.2,6.2,6.17,6.2,10.63s-2.32,8.43-6.2,10.63l-45.83,25.94c-1.85,1.04-3.92,1.6-6,1.6h0Z"/>
          <path class="cls-25" d="M55.45,139.7c1.51,0,3.06.38,4.53,1.21l45.83,25.94c6.24,3.53,6.24,12.51,0,16.04l-45.83,25.94c-1.47.83-3.02,1.21-4.53,1.21-4.82,0-9.23-3.86-9.23-9.23v-51.88c0-5.37,4.41-9.23,9.23-9.23M55.45,133.7c-8.4,0-15.23,6.83-15.23,15.23v51.88c0,8.4,6.83,15.23,15.23,15.23,2.6,0,5.18-.69,7.48-1.99l45.83-25.94c4.83-2.74,7.72-7.69,7.72-13.24s-2.89-10.51-7.72-13.24l-45.83-25.94c-2.3-1.3-4.88-1.99-7.48-1.99h0Z"/>
        </g>
        <line class="cls-10" x1="241.68" y1="105.53" x2="9.94" y2="105.53"/>
      </g>
      <g>
        <g>
          <g>
            <path class="cls-25" d="M164.28,184.7v56.23h-23.49v-58.6c0-33.93,20.17-60.5,57.65-60.5s58.6,26.57,58.6,60.26v58.84h-23.49v-55.99c0-21.83-11.86-40.57-35.11-40.57s-34.16,18.74-34.16,40.33Z"/>
            <path class="cls-25" d="M164.28,184.7v56.23h-23.49v-58.6c0-33.93,20.17-60.5,57.65-60.5s58.6,26.57,58.6,60.26v58.84h-23.49v-55.99c0-21.83-11.86-40.57-35.11-40.57s-34.16,18.74-34.16,40.33Z"/>
            <path class="cls-4" d="M164.28,184.7v56.23h-23.49v-58.6c0-33.93,20.17-60.5,57.65-60.5s58.6,26.57,58.6,60.26v58.84h-23.49v-55.99c0-21.83-11.86-40.57-35.11-40.57s-34.16,18.74-34.16,40.33Z"/>
          </g>
          <g>
            <path class="cls-17" d="M163.74,184.16v56.23h-23.49v-58.6c0-33.93,20.17-60.5,57.65-60.5s58.6,26.57,58.6,60.26v58.84h-23.49v-55.99c0-21.83-11.86-40.57-35.11-40.57s-34.16,18.74-34.16,40.33Z"/>
            <path class="cls-25" d="M163.74,184.16v56.23h-23.49v-58.6c0-33.93,20.17-60.5,57.65-60.5s58.6,26.57,58.6,60.26v58.84h-23.49v-55.99c0-21.83-11.86-40.57-35.11-40.57s-34.16,18.74-34.16,40.33Z"/>
            <path class="cls-2" d="M163.74,184.16v56.23h-23.49v-58.6c0-33.93,20.17-60.5,57.65-60.5s58.6,26.57,58.6,60.26v58.84h-23.49v-55.99c0-21.83-11.86-40.57-35.11-40.57s-34.16,18.74-34.16,40.33Z"/>
          </g>
          <g>
            <path class="cls-32" d="M163.2,183.62v56.23h-23.49v-58.6c0-33.93,20.17-60.5,57.65-60.5s58.6,26.57,58.6,60.26v58.84h-23.49v-55.99c0-21.83-11.86-40.57-35.11-40.57s-34.16,18.74-34.16,40.33Z"/>
            <path class="cls-25" d="M163.2,183.62v56.23h-23.49v-58.6c0-33.93,20.17-60.5,57.65-60.5s58.6,26.57,58.6,60.26v58.84h-23.49v-55.99c0-21.83-11.86-40.57-35.11-40.57s-34.16,18.74-34.16,40.33Z"/>
            <path class="cls-6" d="M163.2,183.62v56.23h-23.49v-58.6c0-33.93,20.17-60.5,57.65-60.5s58.6,26.57,58.6,60.26v58.84h-23.49v-55.99c0-21.83-11.86-40.57-35.11-40.57s-34.16,18.74-34.16,40.33Z"/>
          </g>
          <g>
            <path class="cls-20" d="M162.66,183.08v56.23h-23.49v-58.6c0-33.93,20.17-60.5,57.65-60.5s58.6,26.57,58.6,60.26v58.84h-23.49v-55.99c0-21.83-11.86-40.57-35.11-40.57s-34.16,18.74-34.16,40.33Z"/>
            <path class="cls-25" d="M162.66,183.08v56.23h-23.49v-58.6c0-33.93,20.17-60.5,57.65-60.5s58.6,26.57,58.6,60.26v58.84h-23.49v-55.99c0-21.83-11.86-40.57-35.11-40.57s-34.16,18.74-34.16,40.33Z"/>
            <path class="cls-8" d="M162.66,183.08v56.23h-23.49v-58.6c0-33.93,20.17-60.5,57.65-60.5s58.6,26.57,58.6,60.26v58.84h-23.49v-55.99c0-21.83-11.86-40.57-35.11-40.57s-34.16,18.74-34.16,40.33Z"/>
          </g>
          <g>
            <path class="cls-33" d="M162.13,182.55v56.23h-23.49v-58.6c0-33.93,20.17-60.5,57.65-60.5s58.6,26.57,58.6,60.26v58.84h-23.49v-55.99c0-21.83-11.86-40.57-35.11-40.57s-34.16,18.74-34.16,40.33Z"/>
            <path class="cls-25" d="M162.13,182.55v56.23h-23.49v-58.6c0-33.93,20.17-60.5,57.65-60.5s58.6,26.57,58.6,60.26v58.84h-23.49v-55.99c0-21.83-11.86-40.57-35.11-40.57s-34.16,18.74-34.16,40.33Z"/>
            <path class="cls-11" d="M162.13,182.55v56.23h-23.49v-58.6c0-33.93,20.17-60.5,57.65-60.5s58.6,26.57,58.6,60.26v58.84h-23.49v-55.99c0-21.83-11.86-40.57-35.11-40.57s-34.16,18.74-34.16,40.33Z"/>
          </g>
          <g>
            <path class="cls-24" d="M161.59,182.01v56.23h-23.49v-58.6c0-33.93,20.17-60.5,57.65-60.5s58.6,26.57,58.6,60.26v58.84h-23.49v-55.99c0-21.83-11.86-40.57-35.11-40.57s-34.16,18.74-34.16,40.33Z"/>
            <path class="cls-25" d="M161.59,182.01v56.23h-23.49v-58.6c0-33.93,20.17-60.5,57.65-60.5s58.6,26.57,58.6,60.26v58.84h-23.49v-55.99c0-21.83-11.86-40.57-35.11-40.57s-34.16,18.74-34.16,40.33Z"/>
            <path class="cls-13" d="M161.59,182.01v56.23h-23.49v-58.6c0-33.93,20.17-60.5,57.65-60.5s58.6,26.57,58.6,60.26v58.84h-23.49v-55.99c0-21.83-11.86-40.57-35.11-40.57s-34.16,18.74-34.16,40.33Z"/>
          </g>
          <g>
            <path class="cls-27" d="M161.05,181.47v56.23h-23.49v-58.6c0-33.93,20.17-60.5,57.65-60.5s58.6,26.57,58.6,60.26v58.84h-23.49v-55.99c0-21.83-11.86-40.57-35.11-40.57s-34.16,18.74-34.16,40.33Z"/>
            <path class="cls-25" d="M161.05,181.47v56.23h-23.49v-58.6c0-33.93,20.17-60.5,57.65-60.5s58.6,26.57,58.6,60.26v58.84h-23.49v-55.99c0-21.83-11.86-40.57-35.11-40.57s-34.16,18.74-34.16,40.33Z"/>
            <path class="cls-9" d="M161.05,181.47v56.23h-23.49v-58.6c0-33.93,20.17-60.5,57.65-60.5s58.6,26.57,58.6,60.26v58.84h-23.49v-55.99c0-21.83-11.86-40.57-35.11-40.57s-34.16,18.74-34.16,40.33Z"/>
          </g>
          <g>
            <path class="cls-22" d="M160.51,180.93v56.23h-23.49v-58.6c0-33.93,20.17-60.5,57.65-60.5s58.6,26.57,58.6,60.26v58.84h-23.49v-55.99c0-21.83-11.86-40.57-35.11-40.57s-34.16,18.74-34.16,40.33Z"/>
            <path class="cls-25" d="M160.51,180.93v56.23h-23.49v-58.6c0-33.93,20.17-60.5,57.65-60.5s58.6,26.57,58.6,60.26v58.84h-23.49v-55.99c0-21.83-11.86-40.57-35.11-40.57s-34.16,18.74-34.16,40.33Z"/>
            <path class="cls-3" d="M160.51,180.93v56.23h-23.49v-58.6c0-33.93,20.17-60.5,57.65-60.5s58.6,26.57,58.6,60.26v58.84h-23.49v-55.99c0-21.83-11.86-40.57-35.11-40.57s-34.16,18.74-34.16,40.33Z"/>
          </g>
          <g>
            <path class="cls-23" d="M159.97,180.39v56.23h-23.49v-58.6c0-33.93,20.17-60.5,57.65-60.5s58.6,26.57,58.6,60.26v58.84h-23.49v-55.99c0-21.83-11.86-40.57-35.11-40.57s-34.16,18.74-34.16,40.33Z"/>
            <path class="cls-25" d="M159.97,180.39v56.23h-23.49v-58.6c0-33.93,20.17-60.5,57.65-60.5s58.6,26.57,58.6,60.26v58.84h-23.49v-55.99c0-21.83-11.86-40.57-35.11-40.57s-34.16,18.74-34.16,40.33Z"/>
            <path class="cls-5" d="M159.97,180.39v56.23h-23.49v-58.6c0-33.93,20.17-60.5,57.65-60.5s58.6,26.57,58.6,60.26v58.84h-23.49v-55.99c0-21.83-11.86-40.57-35.11-40.57s-34.16,18.74-34.16,40.33Z"/>
          </g>
          <g>
            <path class="cls-28" d="M159.43,179.85v56.23h-23.49v-58.6c0-33.93,20.17-60.5,57.65-60.5s58.6,26.57,58.6,60.26v58.84h-23.49v-55.99c0-21.83-11.86-40.57-35.11-40.57s-34.16,18.74-34.16,40.33Z"/>
            <path class="cls-25" d="M159.43,179.85v56.23h-23.49v-58.6c0-33.93,20.17-60.5,57.65-60.5s58.6,26.57,58.6,60.26v58.84h-23.49v-55.99c0-21.83-11.86-40.57-35.11-40.57s-34.16,18.74-34.16,40.33Z"/>
            <path class="cls-1" d="M159.43,179.85v56.23h-23.49v-58.6c0-33.93,20.17-60.5,57.65-60.5s58.6,26.57,58.6,60.26v58.84h-23.49v-55.99c0-21.83-11.86-40.57-35.11-40.57s-34.16,18.74-34.16,40.33Z"/>
          </g>
          <g>
            <path class="cls-19" d="M158.9,179.32v56.23h-23.49v-58.6c0-33.93,20.17-60.5,57.65-60.5s58.6,26.57,58.6,60.26v58.84h-23.49v-55.99c0-21.83-11.86-40.57-35.11-40.57s-34.16,18.74-34.16,40.33Z"/>
            <path class="cls-25" d="M158.9,179.32v56.23h-23.49v-58.6c0-33.93,20.17-60.5,57.65-60.5s58.6,26.57,58.6,60.26v58.84h-23.49v-55.99c0-21.83-11.86-40.57-35.11-40.57s-34.16,18.74-34.16,40.33Z"/>
            <path class="cls-15" d="M158.9,179.32v56.23h-23.49v-58.6c0-33.93,20.17-60.5,57.65-60.5s58.6,26.57,58.6,60.26v58.84h-23.49v-55.99c0-21.83-11.86-40.57-35.11-40.57s-34.16,18.74-34.16,40.33Z"/>
          </g>
          <g>
            <path class="cls-30" d="M158.36,178.78v56.23h-23.49v-58.6c0-33.93,20.17-60.5,57.65-60.5s58.6,26.57,58.6,60.26v58.84h-23.49v-55.99c0-21.83-11.86-40.57-35.11-40.57s-34.16,18.74-34.16,40.33Z"/>
            <path class="cls-25" d="M158.36,178.78v56.23h-23.49v-58.6c0-33.93,20.17-60.5,57.65-60.5s58.6,26.57,58.6,60.26v58.84h-23.49v-55.99c0-21.83-11.86-40.57-35.11-40.57s-34.16,18.74-34.16,40.33Z"/>
            <path class="cls-7" d="M158.36,178.78v56.23h-23.49v-58.6c0-33.93,20.17-60.5,57.65-60.5s58.6,26.57,58.6,60.26v58.84h-23.49v-55.99c0-21.83-11.86-40.57-35.11-40.57s-34.16,18.74-34.16,40.33Z"/>
          </g>
          <g>
            <path class="cls-31" d="M157.82,178.24v56.23h-23.49v-58.6c0-33.93,20.17-60.5,57.65-60.5s58.6,26.57,58.6,60.26v58.84h-23.49v-55.99c0-21.83-11.86-40.57-35.11-40.57s-34.16,18.74-34.16,40.33Z"/>
            <path class="cls-25" d="M157.82,178.24v56.23h-23.49v-58.6c0-33.93,20.17-60.5,57.65-60.5s58.6,26.57,58.6,60.26v58.84h-23.49v-55.99c0-21.83-11.86-40.57-35.11-40.57s-34.16,18.74-34.16,40.33Z"/>
            <path class="cls-12" d="M157.82,178.24v56.23h-23.49v-58.6c0-33.93,20.17-60.5,57.65-60.5s58.6,26.57,58.6,60.26v58.84h-23.49v-55.99c0-21.83-11.86-40.57-35.11-40.57s-34.16,18.74-34.16,40.33Z"/>
          </g>
          <g>
            <path class="cls-29" d="M157.28,177.7v56.23h-23.49v-58.6c0-33.93,20.17-60.5,57.65-60.5s58.6,26.57,58.6,60.26v58.84h-23.49v-55.99c0-21.83-11.86-40.57-35.11-40.57s-34.16,18.74-34.16,40.33Z"/>
            <path class="cls-25" d="M157.28,177.7v56.23h-23.49v-58.6c0-33.93,20.17-60.5,57.65-60.5s58.6,26.57,58.6,60.26v58.84h-23.49v-55.99c0-21.83-11.86-40.57-35.11-40.57s-34.16,18.74-34.16,40.33Z"/>
            <path class="cls-16" d="M157.28,177.7v56.23h-23.49v-58.6c0-33.93,20.17-60.5,57.65-60.5s58.6,26.57,58.6,60.26v58.84h-23.49v-55.99c0-21.83-11.86-40.57-35.11-40.57s-34.16,18.74-34.16,40.33Z"/>
          </g>
        </g>
        <path class="cls-26" d="M157.28,177.7v56.23h-23.49v-58.6c0-33.93,20.17-60.5,57.65-60.5s58.6,26.57,58.6,60.26v58.84h-23.49v-55.99c0-21.83-11.86-40.57-35.11-40.57s-34.16,18.74-34.16,40.33Z"/>
        <g>
          <ellipse class="cls-21" cx="238.93" cy="223.64" rx="4.5" ry="4.6"/>
          <ellipse class="cls-21" cx="238.93" cy="204.42" rx="4.5" ry="4.6"/>
          <ellipse class="cls-21" cx="238.94" cy="186.46" rx="4.5" ry="4.6"/>
          <ellipse class="cls-21" cx="237.55" cy="165.91" rx="4.5" ry="4.6"/>
          <ellipse class="cls-21" cx="231.7" cy="147.34" rx="4.5" ry="4.6"/>
          <ellipse class="cls-21" cx="219.47" cy="132.93" rx="4.5" ry="4.6"/>
          <ellipse class="cls-21" cx="202.8" cy="126.1" rx="4.5" ry="4.6"/>
          <ellipse class="cls-21" cx="181.34" cy="125.95" rx="4.5" ry="4.6"/>
          <ellipse class="cls-21" cx="163.58" cy="133.24" rx="4.5" ry="4.6"/>
          <ellipse class="cls-21" cx="151.6" cy="147.46" rx="4.5" ry="4.6"/>
          <ellipse class="cls-21" cx="145.58" cy="167.01" rx="4.5" ry="4.6"/>
          <ellipse class="cls-21" cx="144.91" cy="184.94" rx="4.5" ry="4.6"/>
          <ellipse class="cls-21" cx="144.91" cy="204.29" rx="4.5" ry="4.6"/>
          <ellipse class="cls-21" cx="144.91" cy="223.64" rx="4.5" ry="4.6"/>
        </g>
      </g>
      <g>
        <g>
          <path class="cls-14" d="M448.98,172.54c-17.87,0-31.38-13.51-31.38-30.73s13.73-31.17,31.38-31.17,31.39,12.86,31.39,30.51c0,15.26-12.21,31.38-31.39,31.38ZM448.77,90.81c-30.3,0-52.74,22.01-52.74,51.87s22.67,48.6,50.57,48.6c3.92,0,7.84-.44,11.55-1.53l-27.46,49.91h25.07l32.47-59.06c7.85-14.6,13.3-26.15,13.3-40.1,0-27.68-21.58-49.69-52.74-49.69ZM321.85,90.81c-30.3,0-52.74,22.01-52.74,51.87s22.67,48.6,50.57,48.6c3.92,0,7.84-.44,11.55-1.53l-27.46,49.91h25.07l32.47-59.06c7.85-14.6,13.3-26.15,13.3-40.1,0-27.68-21.58-49.69-52.74-49.69ZM322.07,172.54c-17.87,0-31.38-13.51-31.38-30.73s13.73-31.17,31.38-31.17,31.39,12.86,31.39,30.51c0,15.26-12.21,31.38-31.39,31.38Z"/>
          <path class="cls-14" d="M448.52,172.08c-17.87,0-31.38-13.51-31.38-30.73s13.73-31.17,31.38-31.17,31.39,12.86,31.39,30.51c0,15.26-12.21,31.38-31.39,31.38ZM448.3,90.35c-30.3,0-52.74,22.01-52.74,51.87s22.67,48.6,50.57,48.6c3.92,0,7.84-.44,11.55-1.53l-27.46,49.91h25.07l32.47-59.06c7.85-14.6,13.3-26.15,13.3-40.1,0-27.68-21.58-49.69-52.74-49.69ZM321.39,90.35c-30.3,0-52.74,22.01-52.74,51.87s22.67,48.6,50.57,48.6c3.92,0,7.84-.44,11.55-1.53l-27.46,49.91h25.07l32.47-59.06c7.85-14.6,13.3-26.15,13.3-40.1,0-27.68-21.58-49.69-52.74-49.69ZM321.61,172.08c-17.87,0-31.38-13.51-31.38-30.73s13.73-31.17,31.38-31.17,31.39,12.86,31.39,30.51c0,15.26-12.21,31.38-31.39,31.38Z"/>
          <path class="cls-14" d="M448.06,171.62c-17.87,0-31.38-13.51-31.38-30.73s13.73-31.17,31.38-31.17,31.39,12.86,31.39,30.51c0,15.26-12.21,31.38-31.39,31.38ZM447.84,89.89c-30.3,0-52.74,22.01-52.74,51.87s22.67,48.6,50.57,48.6c3.92,0,7.84-.44,11.55-1.53l-27.46,49.91h25.07l32.47-59.06c7.85-14.6,13.3-26.15,13.3-40.1,0-27.68-21.58-49.69-52.74-49.69ZM320.93,89.89c-30.3,0-52.74,22.01-52.74,51.87s22.67,48.6,50.57,48.6c3.92,0,7.84-.44,11.55-1.53l-27.46,49.91h25.07l32.47-59.06c7.85-14.6,13.3-26.15,13.3-40.1,0-27.68-21.58-49.69-52.74-49.69ZM321.15,171.62c-17.87,0-31.38-13.51-31.38-30.73s13.73-31.17,31.38-31.17,31.39,12.86,31.39,30.51c0,15.26-12.21,31.38-31.39,31.38Z"/>
          <path class="cls-14" d="M447.6,171.16c-17.87,0-31.38-13.51-31.38-30.73s13.73-31.17,31.38-31.17,31.39,12.86,31.39,30.51c0,15.26-12.21,31.38-31.39,31.38ZM447.38,89.43c-30.3,0-52.74,22.01-52.74,51.87s22.67,48.6,50.57,48.6c3.92,0,7.84-.44,11.55-1.53l-27.46,49.91h25.07l32.47-59.06c7.85-14.6,13.3-26.15,13.3-40.1,0-27.68-21.58-49.69-52.74-49.69ZM320.47,89.43c-30.3,0-52.74,22.01-52.74,51.87s22.67,48.6,50.57,48.6c3.92,0,7.84-.44,11.55-1.53l-27.46,49.91h25.07l32.47-59.06c7.85-14.6,13.3-26.15,13.3-40.1,0-27.68-21.58-49.69-52.74-49.69ZM320.69,171.16c-17.87,0-31.38-13.51-31.38-30.73s13.73-31.17,31.38-31.17,31.39,12.86,31.39,30.51c0,15.26-12.21,31.38-31.39,31.38Z"/>
          <path class="cls-14" d="M447.14,170.7c-17.87,0-31.38-13.51-31.38-30.73s13.73-31.17,31.38-31.17,31.39,12.86,31.39,30.51c0,15.26-12.21,31.38-31.39,31.38ZM446.92,88.96c-30.3,0-52.74,22.01-52.74,51.87s22.67,48.6,50.57,48.6c3.92,0,7.84-.44,11.55-1.53l-27.46,49.91h25.07l32.47-59.06c7.85-14.6,13.3-26.15,13.3-40.1,0-27.68-21.58-49.69-52.74-49.69ZM320.01,88.96c-30.3,0-52.74,22.01-52.74,51.87s22.67,48.6,50.57,48.6c3.92,0,7.84-.44,11.55-1.53l-27.46,49.91h25.07l32.47-59.06c7.85-14.6,13.3-26.15,13.3-40.1,0-27.68-21.58-49.69-52.74-49.69ZM320.22,170.7c-17.87,0-31.38-13.51-31.38-30.73s13.73-31.17,31.38-31.17,31.39,12.86,31.39,30.51c0,15.26-12.21,31.38-31.39,31.38Z"/>
          <path class="cls-14" d="M446.67,170.23c-17.87,0-31.38-13.51-31.38-30.73s13.73-31.17,31.38-31.17,31.39,12.86,31.39,30.51c0,15.26-12.21,31.38-31.39,31.38ZM446.46,88.5c-30.3,0-52.74,22.01-52.74,51.87s22.67,48.6,50.57,48.6c3.92,0,7.84-.44,11.55-1.53l-27.46,49.91h25.07l32.47-59.06c7.85-14.6,13.3-26.15,13.3-40.1,0-27.68-21.58-49.69-52.74-49.69ZM319.55,88.5c-30.3,0-52.74,22.01-52.74,51.87s22.67,48.6,50.57,48.6c3.92,0,7.84-.44,11.55-1.53l-27.46,49.91h25.07l32.47-59.06c7.85-14.6,13.3-26.15,13.3-40.1,0-27.68-21.58-49.69-52.74-49.69ZM319.76,170.23c-17.87,0-31.38-13.51-31.38-30.73s13.73-31.17,31.38-31.17,31.39,12.86,31.39,30.51c0,15.26-12.21,31.38-31.39,31.38Z"/>
          <path class="cls-14" d="M446.21,169.77c-17.87,0-31.38-13.51-31.38-30.73s13.73-31.17,31.38-31.17,31.39,12.86,31.39,30.51c0,15.26-12.21,31.38-31.39,31.38ZM446,88.04c-30.3,0-52.74,22.01-52.74,51.87s22.67,48.6,50.57,48.6c3.92,0,7.84-.44,11.55-1.53l-27.46,49.91h25.07l32.47-59.06c7.85-14.6,13.3-26.15,13.3-40.1,0-27.68-21.58-49.69-52.74-49.69ZM319.08,88.04c-30.3,0-52.74,22.01-52.74,51.87s22.67,48.6,50.57,48.6c3.92,0,7.84-.44,11.55-1.53l-27.46,49.91h25.07l32.47-59.06c7.85-14.6,13.3-26.15,13.3-40.1,0-27.68-21.58-49.69-52.74-49.69ZM319.3,169.77c-17.87,0-31.38-13.51-31.38-30.73s13.73-31.17,31.38-31.17,31.39,12.86,31.39,30.51c0,15.26-12.21,31.38-31.39,31.38Z"/>
          <path class="cls-14" d="M445.75,169.31c-17.87,0-31.38-13.51-31.38-30.73s13.73-31.17,31.38-31.17,31.39,12.86,31.39,30.51c0,15.26-12.21,31.38-31.39,31.38ZM445.53,87.58c-30.3,0-52.74,22.01-52.74,51.87s22.67,48.6,50.57,48.6c3.92,0,7.84-.44,11.55-1.53l-27.46,49.91h25.07l32.47-59.06c7.85-14.6,13.3-26.15,13.3-40.1,0-27.68-21.58-49.69-52.74-49.69ZM318.62,87.58c-30.3,0-52.74,22.01-52.74,51.87s22.67,48.6,50.57,48.6c3.92,0,7.84-.44,11.55-1.53l-27.46,49.91h25.07l32.47-59.06c7.85-14.6,13.3-26.15,13.3-40.1,0-27.68-21.58-49.69-52.74-49.69ZM318.84,169.31c-17.87,0-31.38-13.51-31.38-30.73s13.73-31.17,31.38-31.17,31.39,12.86,31.39,30.51c0,15.26-12.21,31.38-31.39,31.38Z"/>
          <path class="cls-14" d="M445.29,168.85c-17.87,0-31.38-13.51-31.38-30.73s13.73-31.17,31.38-31.17,31.39,12.86,31.39,30.51c0,15.26-12.21,31.38-31.39,31.38ZM445.07,87.12c-30.3,0-52.74,22.01-52.74,51.87s22.67,48.6,50.57,48.6c3.92,0,7.84-.44,11.55-1.53l-27.46,49.91h25.07l32.47-59.06c7.85-14.6,13.3-26.15,13.3-40.1,0-27.68-21.58-49.69-52.74-49.69ZM318.16,87.12c-30.3,0-52.74,22.01-52.74,51.87s22.67,48.6,50.57,48.6c3.92,0,7.84-.44,11.55-1.53l-27.46,49.91h25.07l32.47-59.06c7.85-14.6,13.3-26.15,13.3-40.1,0-27.68-21.58-49.69-52.74-49.69ZM318.38,168.85c-17.87,0-31.38-13.51-31.38-30.73s13.73-31.17,31.38-31.17,31.39,12.86,31.39,30.51c0,15.26-12.21,31.38-31.39,31.38Z"/>
          <path class="cls-14" d="M444.83,168.39c-17.87,0-31.38-13.51-31.38-30.73s13.73-31.17,31.38-31.17,31.39,12.86,31.39,30.51c0,15.26-12.21,31.38-31.39,31.38ZM444.61,86.66c-30.3,0-52.74,22.01-52.74,51.87s22.67,48.6,50.57,48.6c3.92,0,7.84-.44,11.55-1.53l-27.46,49.91h25.07l32.47-59.06c7.85-14.6,13.3-26.15,13.3-40.1,0-27.68-21.58-49.69-52.74-49.69ZM317.7,86.66c-30.3,0-52.74,22.01-52.74,51.87s22.67,48.6,50.57,48.6c3.92,0,7.84-.44,11.55-1.53l-27.46,49.91h25.07l32.47-59.06c7.85-14.6,13.3-26.15,13.3-40.1,0-27.68-21.58-49.69-52.74-49.69ZM317.92,168.39c-17.87,0-31.38-13.51-31.38-30.73s13.73-31.17,31.38-31.17,31.39,12.86,31.39,30.51c0,15.26-12.21,31.38-31.39,31.38Z"/>
          <path class="cls-14" d="M444.37,167.93c-17.87,0-31.38-13.51-31.38-30.73s13.73-31.17,31.38-31.17,31.39,12.86,31.39,30.51c0,15.26-12.21,31.38-31.39,31.38ZM444.15,86.2c-30.3,0-52.74,22.01-52.74,51.87s22.67,48.6,50.57,48.6c3.92,0,7.84-.44,11.55-1.53l-27.46,49.91h25.07l32.47-59.06c7.85-14.6,13.3-26.15,13.3-40.1,0-27.68-21.58-49.69-52.74-49.69ZM317.24,86.2c-30.3,0-52.74,22.01-52.74,51.87s22.67,48.6,50.57,48.6c3.92,0,7.84-.44,11.55-1.53l-27.46,49.91h25.07l32.47-59.06c7.85-14.6,13.3-26.15,13.3-40.1,0-27.68-21.58-49.69-52.74-49.69ZM317.46,167.93c-17.87,0-31.38-13.51-31.38-30.73s13.73-31.17,31.38-31.17,31.39,12.86,31.39,30.51c0,15.26-12.21,31.38-31.39,31.38Z"/>
          <path class="cls-14" d="M443.91,167.46c-17.87,0-31.38-13.51-31.38-30.73s13.73-31.17,31.38-31.17,31.39,12.86,31.39,30.51c0,15.26-12.21,31.38-31.39,31.38ZM443.69,85.73c-30.3,0-52.74,22.01-52.74,51.87s22.67,48.6,50.57,48.6c3.92,0,7.84-.44,11.55-1.53l-27.46,49.91h25.07l32.47-59.06c7.85-14.6,13.3-26.15,13.3-40.1,0-27.68-21.58-49.69-52.74-49.69ZM316.78,85.73c-30.3,0-52.74,22.01-52.74,51.87s22.67,48.6,50.57,48.6c3.92,0,7.84-.44,11.55-1.53l-27.46,49.91h25.07l32.47-59.06c7.85-14.6,13.3-26.15,13.3-40.1,0-27.68-21.58-49.69-52.74-49.69ZM316.99,167.46c-17.87,0-31.38-13.51-31.38-30.73s13.73-31.17,31.38-31.17,31.39,12.86,31.39,30.51c0,15.26-12.21,31.38-31.39,31.38Z"/>
          <path class="cls-14" d="M443.44,167c-17.87,0-31.38-13.51-31.38-30.73s13.73-31.17,31.38-31.17,31.39,12.86,31.39,30.51c0,15.26-12.21,31.38-31.39,31.38ZM443.23,85.27c-30.3,0-52.74,22.01-52.74,51.87s22.67,48.6,50.57,48.6c3.92,0,7.84-.44,11.55-1.53l-27.46,49.91h25.07l32.47-59.06c7.85-14.6,13.3-26.15,13.3-40.1,0-27.68-21.58-49.69-52.74-49.69ZM316.31,85.27c-30.3,0-52.74,22.01-52.74,51.87s22.67,48.6,50.57,48.6c3.92,0,7.84-.44,11.55-1.53l-27.46,49.91h25.07l32.47-59.06c7.85-14.6,13.3-26.15,13.3-40.1,0-27.68-21.58-49.69-52.74-49.69ZM316.53,167c-17.87,0-31.38-13.51-31.38-30.73s13.73-31.17,31.38-31.17,31.39,12.86,31.39,30.51c0,15.26-12.21,31.38-31.39,31.38Z"/>
          <path class="cls-14" d="M442.98,166.54c-17.87,0-31.38-13.51-31.38-30.73s13.73-31.17,31.38-31.17,31.39,12.86,31.39,30.51c0,15.26-12.21,31.38-31.39,31.38ZM442.77,84.81c-30.3,0-52.74,22.01-52.74,51.87s22.67,48.6,50.57,48.6c3.92,0,7.84-.44,11.55-1.53l-27.46,49.91h25.07l32.47-59.06c7.85-14.6,13.3-26.15,13.3-40.1,0-27.68-21.58-49.69-52.74-49.69ZM315.85,84.81c-30.3,0-52.74,22.01-52.74,51.87s22.67,48.6,50.57,48.6c3.92,0,7.84-.44,11.55-1.53l-27.46,49.91h25.07l32.47-59.06c7.85-14.6,13.3-26.15,13.3-40.1,0-27.68-21.58-49.69-52.74-49.69ZM316.07,166.54c-17.87,0-31.38-13.51-31.38-30.73s13.73-31.17,31.38-31.17,31.39,12.86,31.39,30.51c0,15.26-12.21,31.38-31.39,31.38Z"/>
        </g>
        <path class="cls-26" d="M315.85,84.81c-30.3,0-52.74,22.01-52.74,51.87s22.67,48.6,50.57,48.6c3.92,0,7.84-.44,11.55-1.53l-27.46,49.91h25.07l32.47-59.06c7.85-14.6,13.3-26.15,13.3-40.1,0-27.68-21.58-49.69-52.74-49.69ZM316.07,166.54c-17.87,0-31.38-13.51-31.38-30.73s13.73-31.17,31.38-31.17,31.39,12.86,31.39,30.51c0,15.26-12.21,31.38-31.39,31.38ZM442.77,84.81c-30.3,0-52.74,22.01-52.74,51.87s22.67,48.6,50.57,48.6c3.92,0,7.84-.44,11.55-1.53l-27.46,49.91h25.07l32.47-59.06c7.85-14.6,13.3-26.15,13.3-40.1,0-27.68-21.58-49.69-52.74-49.69ZM442.98,166.54c-17.87,0-31.38-13.51-31.38-30.73s13.73-31.17,31.38-31.17,31.39,12.86,31.39,30.51c0,15.26-12.21,31.38-31.39,31.38Z"/>
      </g>
    </g>
  </g>
</svg>